<svg width="26" height="20" viewBox="0 0 26 20" fill="none" xmlns="http://www.w3.org/2000/svg">
<rect x="3" y="3" width="20" height="14" rx="4" fill="#151F28"/>
<path d="M6.616 6.664C5.368 6.664 4.9 7.24 4.9 8.512V13H6.172V8.704C6.172 8.152 6.424 7.888 6.988 7.888H9.22V6.664H6.616ZM17.8952 6.664C16.2032 6.664 15.1472 7.696 15.1472 9.832C15.1472 11.968 16.2032 13 17.8952 13H21.1592V11.764H18.0152C16.9112 11.764 16.4312 11.2 16.4312 9.832C16.4312 8.464 16.9112 7.888 18.0152 7.888H21.1592V6.664H17.8952Z" fill="#F4F4F4"/>
<path d="M9.90269 8.584V9.808H14.1867V8.584H9.90269Z" fill="#00E991"/>
</svg>
