<svg width="24" height="24" viewBox="0 0 24 24" fill="none" xmlns="http://www.w3.org/2000/svg">
<path d="M19.4062 16.5938C18.8438 16.0312 18.2031 15.8594 17.4844 16.0781L15.9844 14.5781C17.3281 12.9219 18 11.0625 18 9C18 6.5 17.125 4.375 15.375 2.625C13.625 0.875 11.5 0 9 0C6.5 0 4.375 0.875 2.625 2.625C0.875 4.375 0 6.5 0 9C0 11.5 0.875 13.625 2.625 15.375C4.375 17.125 6.5 18 9 18C11.1875 18 13.0469 17.3281 14.5781 15.9844L16.0781 17.4844C15.8906 18.2344 16.0625 18.875 16.5938 19.4062L20.5781 23.3906C20.9844 23.7969 21.4531 24 21.9844 24C22.5469 24 23.0156 23.7969 23.3906 23.3906C23.7969 22.9844 24 22.5156 24 21.9844C24 21.4531 23.7969 20.9844 23.3906 20.5781L19.4062 16.5938ZM9 15.9844C7.0625 15.9844 5.41406 15.3047 4.05469 13.9453C2.69531 12.5859 2.01562 10.9375 2.01562 9C2.01562 7.0625 2.69531 5.41406 4.05469 4.05469C5.41406 2.69531 7.0625 2.01562 9 2.01562C10.9375 2.01562 12.5859 2.69531 13.9453 4.05469C15.3047 5.41406 15.9844 7.0625 15.9844 9C15.9844 10.9375 15.3047 12.5859 13.9453 13.9453C12.5859 15.3047 10.9375 15.9844 9 15.9844Z" fill="#F4F4F4"/>
</svg>
