<svg width="20" height="20" viewBox="0 0 20 20" fill="none" xmlns="http://www.w3.org/2000/svg">
<path d="M10 20C8.61667 20 7.31667 19.7373 6.1 19.212C4.88333 18.6873 3.825 17.975 2.925 17.075C2.025 16.175 1.31267 15.1167 0.788 13.9C0.262667 12.6833 0 11.3833 0 10C0 8.61667 0.262667 7.31667 0.788 6.1C1.31267 4.88333 2.025 3.825 2.925 2.925C3.825 2.025 4.88333 1.31233 6.1 0.787C7.31667 0.262333 8.61667 0 10 0C11.3833 0 12.6833 0.262333 13.9 0.787C15.1167 1.31233 16.175 2.025 17.075 2.925C17.975 3.825 18.6873 4.88333 19.212 6.1C19.7373 7.31667 20 8.61667 20 10C20 11.3833 19.7373 12.6833 19.212 13.9C18.6873 15.1167 17.975 16.175 17.075 17.075C16.175 17.975 15.1167 18.6873 13.9 19.212C12.6833 19.7373 11.3833 20 10 20ZM4 12H6C6 11.0167 6.35833 10.1873 7.075 9.512C7.79167 8.83733 8.65 8.5 9.65 8.5C10.25 8.5 10.8083 8.63733 11.325 8.912C11.8417 9.18733 12.2667 9.55 12.6 10H11V12H16V7H14V8.55C13.4667 7.91667 12.8293 7.41667 12.088 7.05C11.346 6.68333 10.5333 6.5 9.65 6.5C8.06667 6.5 6.72933 7.03333 5.638 8.1C4.546 9.16667 4 10.4667 4 12Z" fill="#00E991"/>
</svg>
