<svg width="20" height="20" viewBox="0 0 20 20" fill="none" xmlns="http://www.w3.org/2000/svg">
<path d="M10 20C11.3833 20 12.6833 19.7373 13.9 19.212C15.1167 18.6873 16.175 17.975 17.075 17.075C17.975 16.175 18.6873 15.1167 19.212 13.9C19.7373 12.6833 20 11.3833 20 10C20 8.61667 19.7373 7.31667 19.212 6.1C18.6873 4.88333 17.975 3.825 17.075 2.925C16.175 2.025 15.1167 1.31233 13.9 0.787C12.6833 0.262333 11.3833 0 10 0C8.61667 0 7.31667 0.262333 6.1 0.787C4.88333 1.31233 3.825 2.025 2.925 2.925C2.025 3.825 1.31267 4.88333 0.788 6.1C0.262667 7.31667 0 8.61667 0 10C0 11.3833 0.262667 12.6833 0.788 13.9C1.31267 15.1167 2.025 16.175 2.925 17.075C3.825 17.975 4.88333 18.6873 6.1 19.212C7.31667 19.7373 8.61667 20 10 20ZM16 12H14C14 11.0167 13.6417 10.1873 12.925 9.512C12.2083 8.83733 11.35 8.5 10.35 8.5C9.75 8.5 9.19167 8.63733 8.675 8.912C8.15833 9.18733 7.73333 9.55 7.4 10H9V12H4V7H6V8.55C6.53333 7.91667 7.17067 7.41667 7.912 7.05C8.654 6.68333 9.46667 6.5 10.35 6.5C11.9333 6.5 13.2707 7.03333 14.362 8.1C15.454 9.16667 16 10.4667 16 12Z" fill="#00E991"/>
</svg>
